<svg id="Capa_1" enable-background="new 0 0 512 512" height="512" viewBox="0 0 512 512" width="512" xmlns="http://www.w3.org/2000/svg"><g><path d="m252.78 209.524c-2.93-2.929-7.678-2.929-10.607 0l-10.191 10.191-9.866-9.866c-1.407-1.407-3.314-2.197-5.304-2.197h-129.115c-1.989 0-3.896.79-5.304 2.197l-9.866 9.866-10.191-10.191c-2.93-2.929-7.678-2.929-10.607 0s-2.929 7.678 0 10.606l10.191 10.191-9.866 9.866c-1.406 1.406-2.196 3.314-2.196 5.303v64.043c0 4.143 3.357 7.5 7.5 7.5s7.5-3.357 7.5-7.5v-60.937l7.669-7.669 22.866 22.866c-10.292 12.629-16.478 28.73-16.478 46.254s6.185 33.626 16.478 46.254l-22.866 22.866-7.669-7.669v-31.979c0-4.143-3.357-7.5-7.5-7.5s-7.5 3.357-7.5 7.5v35.085c0 1.989.79 3.896 2.196 5.304l9.866 9.866-10.191 10.191c-2.929 2.93-2.929 7.678 0 10.607 1.465 1.464 3.384 2.196 5.304 2.196 1.919 0 3.839-.732 5.304-2.196l10.191-10.191 9.866 9.866c1.407 1.406 3.314 2.196 5.304 2.196h129.115c1.989 0 3.896-.79 5.304-2.196l9.866-9.866 10.191 10.191c1.465 1.464 3.385 2.196 5.304 2.196s3.839-.732 5.304-2.196c2.929-2.93 2.929-7.678 0-10.607l-10.191-10.191 9.866-9.866c1.406-1.407 2.196-3.314 2.196-5.304v-129.114c0-1.989-.79-3.897-2.196-5.303l-9.866-9.866 10.191-10.191c2.927-2.929 2.927-7.678-.002-10.606zm-161.976 13.128h122.902l7.669 7.669-22.866 22.866c-12.629-10.292-28.73-16.478-46.254-16.478s-33.625 6.185-46.254 16.478l-22.866-22.866zm36.906 87.396c0-4.039.987-7.85 2.723-11.215l11.215 11.215-11.215 11.215c-1.736-3.364-2.723-7.175-2.723-11.215zm49.09 0c0 4.039-.987 7.851-2.723 11.215l-11.215-11.215 11.215-11.215c1.736 3.365 2.723 7.176 2.723 11.215zm-13.331 21.822c-3.364 1.736-7.175 2.723-11.215 2.723s-7.85-.987-11.215-2.723l11.215-11.215zm-11.214-32.429-11.215-11.215c3.364-1.736 7.175-2.723 11.215-2.723s7.851.987 11.215 2.723zm22.141-22.141c-6.322-4.288-13.944-6.797-22.142-6.797s-15.82 2.508-22.142 6.797l-13.438-13.438c9.855-7.61 22.194-12.152 35.579-12.152s25.724 4.543 35.579 12.152zm-44.282 65.497c6.322 4.288 13.944 6.796 22.141 6.796s15.819-2.508 22.141-6.796l13.438 13.438c-9.855 7.61-22.193 12.152-35.579 12.152s-25.724-4.543-35.579-12.152zm54.889-10.607c4.288-6.322 6.796-13.944 6.796-22.141s-2.508-15.819-6.796-22.141l13.438-13.438c7.61 9.855 12.152 22.193 12.152 35.579s-4.543 25.724-12.153 35.579zm-91.087-22.142c0-13.386 4.543-25.724 12.152-35.579l13.438 13.438c-4.288 6.322-6.796 13.944-6.796 22.141s2.508 15.82 6.796 22.141l-13.438 13.438c-7.609-9.855-12.152-22.193-12.152-35.579zm119.79 87.397h-122.902l-7.669-7.669 22.866-22.866c12.629 10.292 28.73 16.477 46.254 16.477s33.625-6.185 46.254-16.477l22.866 22.866zm25.945-148.848v122.902l-7.669 7.669-22.866-22.866c10.292-12.629 16.478-28.73 16.478-46.254 0-17.523-6.185-33.625-16.478-46.254l22.866-22.866z"/><path d="m38.078 174.95c0-4.142-3.357-7.472-7.5-7.472s-7.5 3.386-7.5 7.528 3.357 7.5 7.5 7.5 7.5-3.358 7.5-7.5z"/><path d="m30.578 437.617c-4.143 0-7.5 3.387-7.5 7.529s3.357 7.5 7.5 7.5 7.5-3.357 7.5-7.5v-.058c0-4.141-3.357-7.471-7.5-7.471z"/><path d="m488.923 174.95c0-4.142-3.357-7.472-7.5-7.472s-7.5 3.386-7.5 7.528 3.357 7.5 7.5 7.5 7.5-3.358 7.5-7.5z"/><path d="m481.423 437.617c-4.143 0-7.5 3.387-7.5 7.529s3.357 7.5 7.5 7.5 7.5-3.357 7.5-7.5v-.058c0-4.141-3.358-7.471-7.5-7.471z"/><path d="m459.911 246.583c0-4.857-2.096-9.479-5.749-12.681l-27.843-24.392c-1.368-1.198-3.124-1.858-4.942-1.858h-92.087c-1.818 0-3.574.661-4.942 1.859l-27.842 24.392c-3.654 3.201-5.749 7.823-5.749 12.681s2.095 9.48 5.749 12.682l27.842 24.392c1.368 1.198 3.124 1.858 4.942 1.858h92.087c1.818 0 3.574-.66 4.942-1.858l27.844-24.393c3.652-3.202 5.748-7.824 5.748-12.682zm-123.121-23.931h77.087v47.863h-77.087zm-31.033 23.931c0-.384.109-.939.634-1.398l15.399-13.491v29.78l-15.399-13.491c-.525-.46-.634-1.015-.634-1.4zm138.52 1.399-15.4 13.492v-29.78l15.399 13.491c.524.459.635 1.014.635 1.399s-.11.939-.634 1.398z"/><path d="m355.945 235.185c-4.143 0-7.5 3.358-7.5 7.5v7.798c0 4.142 3.357 7.5 7.5 7.5s7.5-3.358 7.5-7.5v-7.798c0-4.142-3.357-7.5-7.5-7.5z"/><path d="m394.723 235.185c-4.143 0-7.5 3.358-7.5 7.5v7.798c0 4.142 3.357 7.5 7.5 7.5s7.5-3.358 7.5-7.5v-7.798c0-4.142-3.358-7.5-7.5-7.5z"/><path d="m339.153 420.627h72.361c4.143 0 7.5-3.357 7.5-7.5v-37.347c0-4.143-3.357-7.5-7.5-7.5h-72.361c-4.143 0-7.5 3.357-7.5 7.5v37.347c0 4.143 3.358 7.5 7.5 7.5zm64.862-15h-21.181v-22.347h21.181zm-57.362-22.346h21.181v22.347h-21.181z"/><path d="m336.023 324.611c0-4.143-3.357-7.5-7.5-7.5h-3.639c-4.143 0-7.5 3.357-7.5 7.5s3.357 7.5 7.5 7.5h3.639c4.143 0 7.5-3.358 7.5-7.5z"/><path d="m382.153 332.111c4.143 0 7.5-3.357 7.5-7.5s-3.357-7.5-7.5-7.5h-13.639c-4.143 0-7.5 3.357-7.5 7.5s3.357 7.5 7.5 7.5z"/><path d="m425.783 332.111c4.143 0 7.5-3.357 7.5-7.5s-3.357-7.5-7.5-7.5h-3.639c-4.143 0-7.5 3.357-7.5 7.5s3.357 7.5 7.5 7.5z"/><path d="m333.999 83.502c4.143 0 7.5-3.358 7.5-7.5s-3.357-7.5-7.5-7.5h-155.997c-4.143 0-7.5 3.358-7.5 7.5s3.357 7.5 7.5 7.5z"/><path d="m136.244 68.502h-11.644c-4.143 0-7.5 3.358-7.5 7.5s3.357 7.5 7.5 7.5h11.645c4.143 0 7.5-3.358 7.5-7.5s-3.358-7.5-7.501-7.5z"/><path d="m387.401 83.502c4.143 0 7.5-3.358 7.5-7.5s-3.357-7.5-7.5-7.5h-11.645c-4.143 0-7.5 3.358-7.5 7.5s3.357 7.5 7.5 7.5z"/><path d="m504.5 405.633c4.143 0 7.5-3.357 7.5-7.5v-235.42c0-9.994-7.978-18.14-17.896-18.453l-45.539-86.611c-6.978-13.271-20.626-21.516-35.62-21.516h-245.697c-4.143 0-7.5 3.358-7.5 7.5s3.357 7.5 7.5 7.5h245.696c9.405 0 17.967 5.171 22.343 13.496l41.853 79.601h-442.28l41.852-79.601c4.377-8.324 12.938-13.496 22.343-13.496h38.206c4.143 0 7.5-3.358 7.5-7.5s-3.357-7.5-7.5-7.5h-38.205c-14.993 0-28.642 8.244-35.62 21.515l-45.539 86.612c-9.919.313-17.897 8.459-17.897 18.453v294.671c0 10.191 8.291 18.482 18.482 18.482h475.035c10.191 0 18.482-8.291 18.482-18.482v-29.264c0-4.143-3.357-7.5-7.5-7.5s-7.5 3.357-7.5 7.5v29.264c0 1.92-1.562 3.482-3.482 3.482h-475.035c-1.92 0-3.482-1.562-3.482-3.482v-294.671c0-1.92 1.562-3.482 3.482-3.482h475.035c1.92 0 3.482 1.562 3.482 3.482v235.42c.001 4.143 3.358 7.5 7.501 7.5z"/></g></svg>