<svg id="Icons" height="512" viewBox="0 0 74 74" width="512" xmlns="http://www.w3.org/2000/svg"><path d="m69 50.719h-64a3 3 0 0 1 -3-3v-29a3 3 0 0 1 3-3h64a3 3 0 0 1 3 3v29a3 3 0 0 1 -3 3zm-64-33a1 1 0 0 0 -1 1v29a1 1 0 0 0 1 1h64a1 1 0 0 0 1-1v-29a1 1 0 0 0 -1-1z"/><path d="m64.625 58.281h-55.25a1.939 1.939 0 0 1 -1.937-1.937v-6.625a1 1 0 0 1 1-1h57.124a1 1 0 0 1 1 1v6.625a1.939 1.939 0 0 1 -1.937 1.937zm-55.187-2h55.187l-.053-5.562h-55.134z"/><path d="m58.75 58.281a1 1 0 0 1 -1-1v-3.125a1 1 0 0 1 2 0v3.125a1 1 0 0 1 -1 1z"/><path d="m52.536 58.281a1 1 0 0 1 -1-1v-3.125a1 1 0 0 1 2 0v3.125a1 1 0 0 1 -1 1z"/><path d="m46.321 58.281a1 1 0 0 1 -1-1v-3.125a1 1 0 0 1 2 0v3.125a1 1 0 0 1 -1 1z"/><path d="m40.107 58.281a1 1 0 0 1 -1-1v-3.125a1 1 0 0 1 2 0v3.125a1 1 0 0 1 -1 1z"/><path d="m33.893 58.281a1 1 0 0 1 -1-1v-3.125a1 1 0 0 1 2 0v3.125a1 1 0 0 1 -1 1z"/><path d="m27.679 58.281a1 1 0 0 1 -1-1v-3.125a1 1 0 0 1 2 0v3.125a1 1 0 0 1 -1 1z"/><path d="m21.464 58.281a1 1 0 0 1 -1-1v-3.125a1 1 0 0 1 2 0v3.125a1 1 0 0 1 -1 1z"/><path d="m15.25 58.281a1 1 0 0 1 -1-1v-3.125a1 1 0 0 1 2 0v3.125a1 1 0 0 1 -1 1z"/><path d="m62.786 44.281h-6.072a1.464 1.464 0 0 1 -1.464-1.463v-19.198a1.465 1.465 0 0 1 1.464-1.464h6.072a1.465 1.465 0 0 1 1.464 1.464v19.2a1.464 1.464 0 0 1 -1.464 1.461zm-5.536-2h5v-18.125h-5z"/><path d="m47.62 44.281h-6.073a1.464 1.464 0 0 1 -1.464-1.463v-19.198a1.465 1.465 0 0 1 1.464-1.464h6.073a1.464 1.464 0 0 1 1.463 1.464v19.2a1.464 1.464 0 0 1 -1.463 1.461zm-5.537-2h5v-18.125h-5z"/><path d="m32.453 44.281h-6.073a1.464 1.464 0 0 1 -1.463-1.463v-19.198a1.464 1.464 0 0 1 1.463-1.464h6.073a1.465 1.465 0 0 1 1.464 1.464v19.2a1.464 1.464 0 0 1 -1.464 1.461zm-5.536-2h5v-18.125h-5z"/><path d="m17.286 44.281h-6.072a1.464 1.464 0 0 1 -1.464-1.463v-19.198a1.465 1.465 0 0 1 1.464-1.464h6.072a1.465 1.465 0 0 1 1.464 1.464v19.2a1.464 1.464 0 0 1 -1.464 1.461zm-5.536-2h5v-18.125h-5z"/></svg>