<svg id="Capa_1" enable-background="new 0 0 511.911 511.911" height="512" viewBox="0 0 511.911 511.911" width="512" xmlns="http://www.w3.org/2000/svg"><g><path d="m438.384 287.304c3.501-2.214 4.565-6.859 2.353-10.36-2.215-3.502-6.827-4.559-10.327-2.345-.382.233-6.167 3.696-14.177 4.073 11.048-9.738 14.061-22.422 14.23-23.172.911-4.04-1.621-8.078-5.662-8.988-4.039-.909-8.049 1.604-8.96 5.644-.104.435-1.745 6.977-7.145 12.909.927-14.7-5.913-25.801-6.323-26.451-2.215-3.503-6.861-4.565-10.359-2.352-3.501 2.213-4.558 6.825-2.345 10.326.234.381 3.699 6.167 4.075 14.179-9.739-11.049-22.424-14.062-23.174-14.231-4.035-.908-8.055 1.628-8.965 5.668-.911 4.041 1.627 8.055 5.668 8.965.107.024 6.799 1.61 12.863 7.134-14.701-.927-25.803 5.913-26.453 6.322-3.501 2.214-4.545 6.847-2.332 10.348 2.215 3.5 6.846 4.545 10.348 2.332.093-.059 5.946-3.671 14.141-4.053-11.052 9.74-14.066 22.428-14.235 23.178-.911 4.04 1.627 8.055 5.668 8.965.555.125 1.109.186 1.655.186 3.43 0 6.524-2.367 7.31-5.854.024-.106 1.61-6.799 7.134-12.863-.928 14.701 5.912 25.804 6.322 26.453 1.431 2.263 3.877 3.508 6.374 3.508 1.366 0 2.748-.373 3.986-1.155 3.501-2.214 4.558-6.825 2.345-10.327-.234-.381-3.699-6.167-4.075-14.18 9.739 11.05 22.425 14.064 23.175 14.233.555.125 1.109.186 1.655.186 3.43 0 6.524-2.367 7.31-5.854.911-4.04-1.627-8.055-5.668-8.965-.106-.024-6.792-1.608-12.854-7.126.929.059 1.844.088 2.743.088 13.315-.002 23.09-6.037 23.699-6.421z"/><path d="m467.722 213.078h8.817c4.143 0 7.5-3.357 7.5-7.5s-3.357-7.5-7.5-7.5h-8.817c-4.143 0-7.5 3.357-7.5 7.5s3.357 7.5 7.5 7.5z"/><path d="m476.539 348.85h-8.817c-4.143 0-7.5 3.357-7.5 7.5s3.357 7.5 7.5 7.5h8.817c4.143 0 7.5-3.357 7.5-7.5s-3.357-7.5-7.5-7.5z"/><path d="m172.005 367.341h45.03c4.143 0 7.5-3.357 7.5-7.5s-3.357-7.5-7.5-7.5h-45.03c-4.143 0-7.5 3.357-7.5 7.5s3.357 7.5 7.5 7.5z"/><path d="m164.505 330.294c0 4.143 3.357 7.5 7.5 7.5h45.03c4.143 0 7.5-3.357 7.5-7.5s-3.357-7.5-7.5-7.5h-45.03c-4.143 0-7.5 3.357-7.5 7.5z"/><path d="m217.035 193.853c4.143 0 7.5-3.357 7.5-7.5v-1.888c0-4.143-3.357-7.5-7.5-7.5s-7.5 3.357-7.5 7.5v1.888c0 4.142 3.358 7.5 7.5 7.5z"/><path d="m209.535 209.275c0 4.143 3.357 7.5 7.5 7.5s7.5-3.357 7.5-7.5v-1.887c0-4.143-3.357-7.5-7.5-7.5s-7.5 3.357-7.5 7.5z"/><path d="m209.535 232.199c0 4.143 3.357 7.5 7.5 7.5s7.5-3.357 7.5-7.5v-1.887c0-4.143-3.357-7.5-7.5-7.5s-7.5 3.357-7.5 7.5z"/><path d="m209.535 255.123c0 4.143 3.357 7.5 7.5 7.5s7.5-3.357 7.5-7.5v-1.887c0-4.143-3.357-7.5-7.5-7.5s-7.5 3.357-7.5 7.5z"/><path d="m181.192 177.881h-24.921c-7.273 0-13.191 5.918-13.191 13.191v79.026c0 7.273 5.918 13.191 13.191 13.191h24.921c7.273 0 13.191-5.918 13.191-13.191v-79.026c.001-7.273-5.917-13.191-13.191-13.191zm-1.808 90.409h-21.304v-75.409h21.304z"/><path d="m264.464 191.965c4.143 0 7.5-3.357 7.5-7.5s-3.357-7.5-7.5-7.5h-8.464c-4.143 0-7.5 3.357-7.5 7.5s3.357 7.5 7.5 7.5z"/><path d="m240.269 209.275c0 4.143 3.357 7.5 7.5 7.5h8.463c4.143 0 7.5-3.357 7.5-7.5s-3.357-7.5-7.5-7.5h-8.463c-4.143 0-7.5 3.358-7.5 7.5z"/><path d="m322.137 280.964c0 40.747 33.149 73.896 73.896 73.896 22.366 0 43.29-9.979 57.405-27.378 2.609-3.217 2.117-7.94-1.099-10.55-3.22-2.611-7.94-2.117-10.55 1.099-11.255 13.873-27.932 21.829-45.757 21.829-32.476 0-58.896-26.421-58.896-58.896s26.421-58.896 58.896-58.896 58.896 26.42 58.896 58.896c0 4.272-.477 8.586-1.416 12.819-.896 4.044 1.654 8.05 5.697 8.947 4.051.896 8.05-1.654 8.947-5.697 1.176-5.3 1.771-10.706 1.771-16.069 0-40.746-33.149-73.896-73.896-73.896-40.745 0-73.894 33.15-73.894 73.896z"/><path d="m504.411 152.135h-411.395v-18.795l37.517-5.167c6.314-.869 11.076-6.331 11.076-12.706v-18.096c0-6.373-4.762-11.836-11.076-12.706l-37.517-5.167v-24.639c0-8.565-6.968-15.533-15.533-15.533h-16.962c-4.143 0-7.5 3.357-7.5 7.5s3.357 7.5 7.5 7.5h16.962c.294 0 .533.239.533.533v402.726h-24.457v-366.73c0-8.565-6.968-15.534-15.533-15.534h-23.026v-20.995h15.533c4.143 0 7.5-3.357 7.5-7.5s-3.357-7.5-7.5-7.5h-23.033c-4.143 0-7.5 3.357-7.5 7.5v35.995c0 4.143 3.357 7.5 7.5 7.5h30.525c.294 0 .533.239.533.534v109.977h-18.275c-4.143 0-7.5 3.357-7.5 7.5v41.694c0 4.143 3.357 7.5 7.5 7.5h18.275v25.938h-18.275c-4.143 0-7.5 3.357-7.5 7.5v78.66c0 4.143 3.357 7.5 7.5 7.5h18.275v87.961c0 4.143 3.357 7.5 7.5 7.5h39.457c4.143 0 7.5-3.357 7.5-7.5v-35.291h51.195c4.143 0 7.5-3.357 7.5-7.5v-21.685h20.179c4.143 0 7.5-3.357 7.5-7.5s-3.357-7.5-7.5-7.5h-27.679c-4.143 0-7.5 3.357-7.5 7.5v21.685h-43.694v-37.67h27.632c4.143 0 7.5-3.357 7.5-7.5v-15.646h13.896c4.143 0 7.5-3.357 7.5-7.5v-32.368c0-4.143-3.357-7.5-7.5-7.5h-13.896v-15.646c0-4.143-3.357-7.5-7.5-7.5h-27.632v-25.938h27.632c4.143 0 7.5-3.357 7.5-7.5v-41.694c0-4.143-3.357-7.5-7.5-7.5h-27.632v-33.697h227.91l-100.967 98.461c-2.703 2.636-3.025 6.871-.751 9.886l83.079 110.128h-100.41c-4.143 0-7.5 3.357-7.5 7.5s3.357 7.5 7.5 7.5h19.146v21.685c0 4.143 3.357 7.5 7.5 7.5h156.227c4.143 0 7.5-3.357 7.5-7.5v-21.685h112.162c4.143 0 7.5-3.357 7.5-7.5v-233.475c-.001-4.143-3.358-7.5-7.501-7.5zm-476.628 90.391v-26.694h10.775v26.694zm0 119.598v-63.66h10.775v63.66zm98.825-262.858v14.306l-33.593 4.627v-23.56zm-13.461 199.198v15.646c0 4.143 3.357 7.5 7.5 7.5h13.896v17.368h-13.896c-4.143 0-7.5 3.357-7.5 7.5v15.646h-20.131v-63.66zm0-82.632v26.694h-20.131v-26.694zm186.203 184.777h14.573v14.185h-14.573zm-15 14.185h-14.572v-14.185h14.572zm44.573-14.185h14.572v14.185h-14.572zm-92.901 0h18.755v14.185h-18.755zm141.227 14.185h-18.754v-14.185h18.754zm119.662-29.185h-175.834l-85.915-113.888 107.248-104.586h154.501z"/></g></svg>